<svg xmlns="http://www.w3.org/2000/svg" width="50" height="49" viewBox="0 0 50 49" fill="none">
  <g clip-path="url(#clip0_54_402)">
    <path d="M25 5.25C36.5062 5.25 45.8333 14.204 45.8333 25.25C45.8333 36.296 36.5062 45.25 25 45.25C13.4937 45.25 4.16666 36.296 4.16666 25.25C4.16666 14.204 13.4937 5.25 25 5.25ZM23.5271 18.178L17.6333 23.836C17.2428 24.2111 17.0233 24.7197 17.0233 25.25C17.0233 25.7803 17.2428 26.2889 17.6333 26.664L23.5271 32.322C23.9178 32.6969 24.4476 32.9076 25 32.9076C25.5524 32.9076 26.0822 32.6969 26.4729 32.322L32.3667 26.664C32.7572 26.2889 32.9766 25.7803 32.9766 25.25C32.9766 24.7197 32.7572 24.2111 32.3667 23.836L26.4729 18.178C26.0822 17.8031 25.5524 17.5924 25 17.5924C24.4476 17.5924 23.9178 17.8031 23.5271 18.178Z" fill="white"/>
  </g>
  <defs>
    <clipPath id="clip0_54_402">
      <rect width="50" height="48" fill="white" transform="translate(0 0.5)"/>
    </clipPath>
  </defs>
</svg>