<svg xmlns="http://www.w3.org/2000/svg" width="216" height="247" viewBox="0 0 216 247" fill="none">
            <path
                d="M135.376 59.9587C169.415 56.2155 196.592 45.1219 215.996 34.5312L198.562 23.6376C197.413 22.9193 196.263 22.201 195.114 21.4828C175.63 29.2163 155.149 34.2843 134.282 36.559C106.216 39.6957 77.8397 37.7885 49.9562 30.8294L48.0795 30.4224C42.187 35.1631 36.6398 40.63 31.5527 46.6396C56.6432 55.937 93.0294 64.6358 135.376 59.9587Z"
                fill="#FB6109" />
            <path
                d="M131.518 17.9858C144.575 16.7008 157.438 14.0191 169.995 10.1244C136.708 -0.976678 101.06 1.50563 71.0912 16.2145C91.1213 19.5423 111.378 19.9492 131.518 17.9858Z"
                fill="#FB6109" />
            <path
                d="M58.0929 230.147C60.6603 232.006 63.4192 233.986 66.1013 235.661C70.6992 238.535 75.297 241.408 79.8949 244.281C80.1766 218.678 76.0167 193.363 67.2626 169.006C53.0564 129.501 29.6705 100.85 11.0045 82.5501C8.10163 90.1797 6.07978 98.1047 4.86202 106.022L6.70215 108.192C23.7245 129.549 37.0727 152.949 46.0575 178.216C51.8939 194.88 56.0465 212.533 58.0929 230.147Z"
                fill="#FB6109" />
            <path
                d="M29.8938 180.62C34.4624 192.918 37.6912 205.655 39.6949 218.648C15.1254 193.596 1.72951 160.468 1.8123 127.084C13.584 143.629 22.9445 161.474 29.8938 180.62Z"
                fill="#FB6109" />
        </svg>