<svg xmlns="http://www.w3.org/2000/svg" width="81" height="216" viewBox="0 0 81 216" fill="none">
  <path d="M47.5292 165.068C32.0606 184.531 13.6344 201.316 -7.30292 215.189C-7.43711 205.224 -7.57435 195.032 -7.70853 185.067C4.28718 174.712 15.5905 163.007 25.5366 150.641C34.156 139.878 41.8674 128.448 48.4463 116.354C58.308 114.409 68.6222 112.684 79.6165 111.403C71.1099 130.546 60.566 148.583 47.5292 165.068Z" fill="#FB6109"/>
  <path d="M10.0939 138.176C4.34662 145.276 -1.62837 152.152 -8.2835 158.584C-8.40549 149.525 -8.52443 140.692 -8.64642 131.633C0.0766192 128.571 10.1447 125.264 21.564 122.165C18.0453 127.876 14.2958 133.136 10.0939 138.176Z" fill="#FB6109"/>
  <path d="M9.30517 80.0825C13.872 85.4576 17.9926 91.0652 22.1132 96.6728C8.81715 93.9071 -2.91523 90.4407 -12.8471 87.1765L-13.2557 56.8279C-5.06952 63.9664 2.4518 71.7934 9.30517 80.0825Z" fill="#2AA626"/>
  <path d="M-13.6034 31.0015L-13.9999 1.5587C8.87924 15.0686 28.8863 32.2415 46.0121 52.398C59.488 68.5263 70.7415 86.4967 79.5388 105.633C68.514 104.649 58.1602 103.429 48.4774 101.974C41.3475 89.8373 33.1003 78.1691 24.1943 67.6424C13.0018 54.2017 0.251737 41.9146 -13.6034 31.0015Z" fill="#2AA626"/>
</svg>