<svg xmlns="http://www.w3.org/2000/svg" width="190" height="229" viewBox="0 0 190 229" fill="none">
  <path d="M128.226 75.9361C117.249 46.9669 114.98 20.2536 115.5 0L131.388 9.17281C132.435 9.77761 133.483 10.3824 134.53 10.9872C136.333 30.0412 140.681 48.7175 147.427 66.4682C156.436 90.3761 169.616 112.304 186.642 131.602L187.738 132.928C186.359 139.752 184.256 146.621 181.529 153.36C163.776 137.337 141.865 111.986 128.226 75.9361Z" fill="#FF9E0F"/>
  <path d="M163.445 60.4732C159.114 49.4278 155.981 37.9196 153.946 26.1218C176.51 47.9244 189.157 77.6277 189.675 108.18C178.784 93.5781 170.141 77.5027 163.445 60.4732Z" fill="#FF9E0F"/>
  <path d="M23.5779 213.203C21.0337 211.965 18.3148 210.626 15.8705 209.215C11.6803 206.796 7.49016 204.377 3.29997 201.957C23.7008 190.411 45.6951 182.556 68.8082 178.811C106.298 172.743 138.86 178.841 161.189 185.728C156.267 191.431 150.746 196.557 144.902 201.035L142.407 200.518C118.303 196.302 94.0715 195.937 70.1345 199.899C54.3845 202.584 38.5329 207.057 23.5779 213.203Z" fill="#FF9E0F"/>
  <path d="M74.8448 213.933C63.1136 215.705 51.5808 218.746 40.3464 222.883C70.5096 231.522 102.557 227.623 129.275 212.796C111.184 210.665 93.0407 211.044 74.8448 213.933Z" fill="#FF9E0F"/>
</svg>